<?xml version="1.0" standalone="no"?>
<svg xmlns:xlink="http://www.w3.org/1999/xlink" id="wave" style="transform:rotate(180deg); transition: 0.3s" viewBox="0 0 1440 490" version="1.1" xmlns="http://www.w3.org/2000/svg"><defs><linearGradient id="sw-gradient-0" x1="0" x2="0" y1="1" y2="0"><stop stop-color="rgba(43, 62, 132, 1)" offset="0%"/><stop stop-color="rgba(43, 62, 132, 1)" offset="100%"/></linearGradient></defs><path style="transform:translate(0, 0px); opacity:1" fill="url(#sw-gradient-0)" d="M0,441L60,432.8C120,425,240,408,360,383.8C480,359,600,327,720,261.3C840,196,960,98,1080,49C1200,0,1320,0,1440,49C1560,98,1680,196,1800,204.2C1920,212,2040,131,2160,81.7C2280,33,2400,16,2520,32.7C2640,49,2760,98,2880,114.3C3000,131,3120,114,3240,155.2C3360,196,3480,294,3600,277.7C3720,261,3840,131,3960,89.8C4080,49,4200,98,4320,171.5C4440,245,4560,343,4680,375.7C4800,408,4920,376,5040,367.5C5160,359,5280,376,5400,351.2C5520,327,5640,261,5760,261.3C5880,261,6000,327,6120,359.3C6240,392,6360,392,6480,359.3C6600,327,6720,261,6840,204.2C6960,147,7080,98,7200,73.5C7320,49,7440,49,7560,40.8C7680,33,7800,16,7920,32.7C8040,49,8160,98,8280,106.2C8400,114,8520,82,8580,65.3L8640,49L8640,490L8580,490C8520,490,8400,490,8280,490C8160,490,8040,490,7920,490C7800,490,7680,490,7560,490C7440,490,7320,490,7200,490C7080,490,6960,490,6840,490C6720,490,6600,490,6480,490C6360,490,6240,490,6120,490C6000,490,5880,490,5760,490C5640,490,5520,490,5400,490C5280,490,5160,490,5040,490C4920,490,4800,490,4680,490C4560,490,4440,490,4320,490C4200,490,4080,490,3960,490C3840,490,3720,490,3600,490C3480,490,3360,490,3240,490C3120,490,3000,490,2880,490C2760,490,2640,490,2520,490C2400,490,2280,490,2160,490C2040,490,1920,490,1800,490C1680,490,1560,490,1440,490C1320,490,1200,490,1080,490C960,490,840,490,720,490C600,490,480,490,360,490C240,490,120,490,60,490L0,490Z"/><defs><linearGradient id="sw-gradient-1" x1="0" x2="0" y1="1" y2="0"><stop stop-color="rgba(130, 118, 244, 1)" offset="0%"/><stop stop-color="rgba(130, 118, 244, 1)" offset="100%"/></linearGradient></defs><path style="transform:translate(0, 50px); opacity:0.9" fill="url(#sw-gradient-1)" d="M0,343L60,310.3C120,278,240,212,360,204.2C480,196,600,245,720,245C840,245,960,196,1080,196C1200,196,1320,245,1440,228.7C1560,212,1680,131,1800,98C1920,65,2040,82,2160,106.2C2280,131,2400,163,2520,155.2C2640,147,2760,98,2880,89.8C3000,82,3120,114,3240,171.5C3360,229,3480,310,3600,359.3C3720,408,3840,425,3960,408.3C4080,392,4200,343,4320,277.7C4440,212,4560,131,4680,89.8C4800,49,4920,49,5040,57.2C5160,65,5280,82,5400,89.8C5520,98,5640,98,5760,147C5880,196,6000,294,6120,302.2C6240,310,6360,229,6480,212.3C6600,196,6720,245,6840,261.3C6960,278,7080,261,7200,245C7320,229,7440,212,7560,187.8C7680,163,7800,131,7920,130.7C8040,131,8160,163,8280,171.5C8400,180,8520,163,8580,155.2L8640,147L8640,490L8580,490C8520,490,8400,490,8280,490C8160,490,8040,490,7920,490C7800,490,7680,490,7560,490C7440,490,7320,490,7200,490C7080,490,6960,490,6840,490C6720,490,6600,490,6480,490C6360,490,6240,490,6120,490C6000,490,5880,490,5760,490C5640,490,5520,490,5400,490C5280,490,5160,490,5040,490C4920,490,4800,490,4680,490C4560,490,4440,490,4320,490C4200,490,4080,490,3960,490C3840,490,3720,490,3600,490C3480,490,3360,490,3240,490C3120,490,3000,490,2880,490C2760,490,2640,490,2520,490C2400,490,2280,490,2160,490C2040,490,1920,490,1800,490C1680,490,1560,490,1440,490C1320,490,1200,490,1080,490C960,490,840,490,720,490C600,490,480,490,360,490C240,490,120,490,60,490L0,490Z"/></svg>